<?xml version="1.0" encoding="utf-8"?>
<!-- Generator: Adobe Illustrator 24.1.0, SVG Export Plug-In . SVG Version: 6.00 Build 0)  -->
<svg version="1.1" id="Layer_1" xmlns="http://www.w3.org/2000/svg" xmlns:xlink="http://www.w3.org/1999/xlink" x="0px" y="0px"
	 viewBox="0 0 16 16" style="enable-background:new 0 0 16 16;" xml:space="preserve">
<style type="text/css">
	.st0{fill:#04D4F4;}
</style>
<path class="st0" d="M7.8,14.1c0.8,0.2,1.5-0.4,1.5-1.2c0.1-0.9,0.2-1.6,0.3-2.1c0.1-0.3,0.4-0.8,0.8-1.3c0.6-0.5,1.1-1,1.8-1.1
	c0.6-0.2,1.1-0.6,1.1-1.3V3.9c0-0.6-0.6-1.2-1.1-1.2c-0.9-0.2-1.3-0.4-1.7-0.6l0,0C10.2,2,10,1.9,9.7,1.7C9.4,1.6,9,1.6,8.5,1.6H5.7
	C5,1.6,4.4,2,4.2,2.4C4,2.7,4,2.9,3.9,3.2c0,0.2,0,0.2,0.1,0.4C3.8,3.8,3.7,4,3.6,4.3c-0.1,0.2-0.2,0.6,0,0.9
	C3.5,5.2,3.5,5.4,3.5,5.5C3.4,5.7,3.4,5.9,3.4,6.2c0,0.2,0,0.5,0.1,0.7c0,0.1,0.1,0.2,0.1,0.3c-0.3,0.4-0.3,1-0.2,1.4
	c0.2,0.5,0.6,0.9,1,1c0.6,0.2,1.4,0.2,2,0.2c0.1,0,0.2,0,0.3-0.1c-0.2,1.2-0.2,2.4,0.1,3.6c0.1,0.4,0.4,0.7,0.8,0.8L7.8,14.1z
	 M5.7,2.4h2.8c0.4,0,0.7,0.1,0.9,0.2C9.6,2.6,9.8,2.7,10,2.8l0,0c0.5,0.2,1,0.6,2,0.7c0.3,0,0.5,0.2,0.5,0.4v3.2
	c0,0.2-0.2,0.4-0.5,0.5C11.1,7.9,10.4,8.4,9.9,9C9.4,9.5,9,10.2,9,10.6c-0.2,0.6-0.4,1.4-0.5,2.3c0,0.2-0.2,0.5-0.5,0.4l-0.2-0.1
	c-0.2,0-0.2-0.1-0.2-0.2c-0.3-1.2-0.2-2.5,0.2-3.8c0.1-0.2-0.1-0.4-0.2-0.5c-0.1,0-0.2,0-0.2,0l0,0l0,0H7.1C6.9,8.8,6.6,8.8,6.3,8.9
	C5.8,9,5.1,9,4.6,8.7C4.5,8.7,4.2,8.5,4.2,8.3C4.1,8,4.1,7.7,4.4,7.5l0.3-0.3L4.4,6.8c0,0-0.1-0.1-0.2-0.2c0-0.2-0.1-0.3-0.1-0.5
	c0-0.2,0-0.3,0.1-0.5c0.1-0.2,0.1-0.2,0.2-0.2l0.3-0.3L4.4,4.7c0,0-0.1-0.2,0-0.4c0.1-0.2,0.2-0.5,0.4-0.6l0.3-0.3L4.8,3.1
	c0,0,0-0.1,0-0.2c0-0.1,0-0.2,0.1-0.3C5,2.6,5.2,2.4,5.7,2.4L5.7,2.4z"/>
</svg>
