<?xml version="1.0" encoding="utf-8"?>
<!-- Generator: Adobe Illustrator 24.1.0, SVG Export Plug-In . SVG Version: 6.00 Build 0)  -->
<svg version="1.1" id="Layer_1" xmlns="http://www.w3.org/2000/svg" xmlns:xlink="http://www.w3.org/1999/xlink" x="0px" y="0px"
	 viewBox="0 0 16 16" style="enable-background:new 0 0 16 16;" xml:space="preserve">
<style type="text/css">
	.st0{fill:#04D4F4;}
</style>
<path class="st0" d="M8.8,1.6C8,1.4,7.3,2,7.3,2.8C7.2,3.7,7.1,4.4,6.9,4.9C6.9,5.2,6.5,5.7,6.1,6.1C5.6,6.6,5,7.1,4.4,7.2
	C3.8,7.4,3.3,7.9,3.3,8.5v3.2c0,0.6,0.6,1.2,1.1,1.2c0.9,0.2,1.3,0.4,1.7,0.6l0,0c0.2,0.2,0.5,0.2,0.8,0.4c0.3,0.1,0.7,0.2,1.2,0.2
	h2.8c0.7,0,1.3-0.4,1.5-0.9c0.2-0.2,0.2-0.5,0.2-0.7c0-0.2,0-0.2-0.1-0.4c0.2-0.2,0.3-0.5,0.4-0.7s0.2-0.6,0-0.9
	c0.1-0.1,0.1-0.2,0.2-0.3c0.1-0.2,0.1-0.5,0.1-0.7s0-0.5-0.1-0.7c0-0.1-0.1-0.2-0.1-0.3c0.3-0.4,0.3-1,0.2-1.4c-0.2-0.5-0.6-0.9-1-1
	c-0.6-0.2-1.4-0.2-2-0.2c-0.1,0-0.2,0-0.3,0.1c0.2-1.2,0.2-2.4-0.1-3.6C9.7,2,9.4,1.7,9,1.6L8.8,1.6z M10.8,13.3H8.1
	c-0.4,0-0.7-0.1-0.9-0.2c-0.2-0.1-0.4-0.2-0.6-0.3l0,0c-0.5-0.2-1-0.6-2-0.7c-0.3,0-0.5-0.2-0.5-0.4V8.5c0-0.2,0.2-0.4,0.5-0.5
	c0.9-0.2,1.6-0.8,2.1-1.4s0.9-1.2,1-1.6C7.8,4.5,8,3.7,8.1,2.8c0-0.2,0.2-0.5,0.5-0.4l0.2,0.1C8.9,2.5,9,2.5,9,2.7
	c0.3,1.2,0.2,2.5-0.2,3.8C8.8,6.6,8.9,6.8,9.1,6.9c0.1,0,0.2,0,0.2,0l0,0l0,0h0.1c0.2-0.1,0.6-0.1,0.8-0.2c0.6-0.1,1.2-0.1,1.7,0.2
	C12,7,12.3,7.2,12.4,7.4s0.1,0.6-0.2,0.8l-0.3,0.3l0.3,0.3c0,0,0.1,0.1,0.2,0.2c0,0.2,0.1,0.3,0.1,0.5c0,0.2,0,0.3-0.1,0.5
	c-0.1,0.2-0.1,0.2-0.2,0.2l-0.3,0.3l0.3,0.3c0,0,0.1,0.2,0,0.4c-0.1,0.2-0.2,0.5-0.4,0.6l-0.3,0.3l0.3,0.3c0,0,0,0.1,0,0.2
	s0,0.2-0.1,0.3C11.6,13.1,11.3,13.3,10.8,13.3L10.8,13.3z"/>
</svg>
